<?xml version="1.0" encoding="UTF-8" standalone="no"?>
<!DOCTYPE svg PUBLIC "-//W3C//DTD SVG 1.1//EN"
 "http://www.w3.org/Graphics/SVG/1.1/DTD/svg11.dtd">
<!-- Generated by graphviz version 9.0.0 (20230911.1827)
 -->
<!-- Title: DataCollectionArchitecture Pages: 1 -->
<svg width="790pt" height="337pt"
 viewBox="0.00 0.00 789.92 336.65" xmlns="http://www.w3.org/2000/svg" xmlns:xlink="http://www.w3.org/1999/xlink">
<g id="graph0" class="graph" transform="scale(1 1) rotate(0) translate(4 332.65)">
<title>DataCollectionArchitecture</title>
<polygon fill="white" stroke="none" points="-4,4 -4,-332.65 785.92,-332.65 785.92,4 -4,4"/>
<text text-anchor="middle" x="390.96" y="-307.55" font-family="Arial Bold" font-size="18.00">Data Collection Architecture</text>
<!-- endpoints -->
<g id="node1" class="node">
<title>endpoints</title>
<path fill="#ffffff" stroke="#475569" d="M72.3,-298.9C72.3,-298.9 15,-298.9 15,-298.9 9,-298.9 3,-292.9 3,-286.9 3,-286.9 3,-268.6 3,-268.6 3,-262.6 9,-256.6 15,-256.6 15,-256.6 72.3,-256.6 72.3,-256.6 78.3,-256.6 84.3,-262.6 84.3,-268.6 84.3,-268.6 84.3,-286.9 84.3,-286.9 84.3,-292.9 78.3,-298.9 72.3,-298.9"/>
<text text-anchor="middle" x="43.65" y="-273.1" font-family="Arial" font-size="12.00">Endpoints</text>
</g>
<!-- logagents -->
<g id="node2" class="node">
<title>logagents</title>
<path fill="#ffffff" stroke="#475569" d="M219.05,-298.9C219.05,-298.9 154.25,-298.9 154.25,-298.9 148.25,-298.9 142.25,-292.9 142.25,-286.9 142.25,-286.9 142.25,-268.6 142.25,-268.6 142.25,-262.6 148.25,-256.6 154.25,-256.6 154.25,-256.6 219.05,-256.6 219.05,-256.6 225.05,-256.6 231.05,-262.6 231.05,-268.6 231.05,-268.6 231.05,-286.9 231.05,-286.9 231.05,-292.9 225.05,-298.9 219.05,-298.9"/>
<text text-anchor="middle" x="186.65" y="-273.1" font-family="Arial" font-size="12.00">Log Agents</text>
</g>
<!-- endpoints&#45;&gt;logagents -->
<g id="edge1" class="edge">
<title>endpoints&#45;&gt;logagents</title>
<path fill="none" stroke="#475569" stroke-width="2" d="M84.63,-277C84.63,-277 128.88,-277 128.88,-277"/>
<polygon fill="#475569" stroke="#475569" stroke-width="2" points="128.88,-280.5 138.88,-277 128.88,-273.5 128.88,-280.5"/>
<text text-anchor="middle" x="97.75" y="-279.5" font-family="Arial" font-size="10.00">logs</text>
</g>
<!-- eventlogs -->
<g id="node6" class="node">
<title>eventlogs</title>
<path fill="#0ea5e9" stroke="#0284c7" d="M75.3,-170.6C75.3,-170.6 12,-170.6 12,-170.6 6,-170.6 0,-164.6 0,-158.6 0,-158.6 0,-140.3 0,-140.3 0,-134.3 6,-128.3 12,-128.3 12,-128.3 75.3,-128.3 75.3,-128.3 81.3,-128.3 87.3,-134.3 87.3,-140.3 87.3,-140.3 87.3,-158.6 87.3,-158.6 87.3,-164.6 81.3,-170.6 75.3,-170.6"/>
<text text-anchor="middle" x="43.65" y="-144.8" font-family="Arial" font-size="12.00" fill="white">Event Logs</text>
</g>
<!-- endpoints&#45;&gt;eventlogs -->
<g id="edge5" class="edge">
<title>endpoints&#45;&gt;eventlogs</title>
<path fill="none" stroke="#64748b" stroke-width="2" stroke-dasharray="5,2" d="M43.65,-256.28C43.65,-256.28 43.65,-184.02 43.65,-184.02"/>
<polygon fill="#64748b" stroke="#64748b" stroke-width="2" points="47.15,-184.02 43.65,-174.02 40.15,-184.02 47.15,-184.02"/>
</g>
<!-- siem -->
<g id="node3" class="node">
<title>siem</title>
<path fill="#3b82f6" stroke="#1d4ed8" stroke-width="3" d="M722.55,-298.9C722.55,-298.9 642.75,-298.9 642.75,-298.9 636.75,-298.9 630.75,-292.9 630.75,-286.9 630.75,-286.9 630.75,-268.6 630.75,-268.6 630.75,-262.6 636.75,-256.6 642.75,-256.6 642.75,-256.6 722.55,-256.6 722.55,-256.6 728.55,-256.6 734.55,-262.6 734.55,-268.6 734.55,-268.6 734.55,-286.9 734.55,-286.9 734.55,-292.9 728.55,-298.9 722.55,-298.9"/>
<text text-anchor="middle" x="682.65" y="-273.1" font-family="Arial" font-size="12.00" fill="white">SIEM Platform</text>
</g>
<!-- logagents&#45;&gt;siem -->
<g id="edge2" class="edge">
<title>logagents&#45;&gt;siem</title>
<path fill="none" stroke="#475569" stroke-width="2" d="M199.95,-256.19C199.95,-237.35 199.95,-213 199.95,-213 199.95,-213 635.06,-213 635.06,-213 635.06,-213 635.06,-242.08 635.06,-242.08"/>
<polygon fill="#475569" stroke="#475569" stroke-width="2" points="631.56,-242.08 635.06,-252.08 638.56,-242.08 631.56,-242.08"/>
<text text-anchor="middle" x="377.45" y="-215.5" font-family="Arial" font-size="10.00">processed logs</text>
</g>
<!-- textlogs1 -->
<g id="node7" class="node">
<title>textlogs1</title>
<path fill="#0ea5e9" stroke="#0284c7" d="M214.55,-170.6C214.55,-170.6 158.75,-170.6 158.75,-170.6 152.75,-170.6 146.75,-164.6 146.75,-158.6 146.75,-158.6 146.75,-140.3 146.75,-140.3 146.75,-134.3 152.75,-128.3 158.75,-128.3 158.75,-128.3 214.55,-128.3 214.55,-128.3 220.55,-128.3 226.55,-134.3 226.55,-140.3 226.55,-140.3 226.55,-158.6 226.55,-158.6 226.55,-164.6 220.55,-170.6 214.55,-170.6"/>
<text text-anchor="middle" x="186.65" y="-144.8" font-family="Arial" font-size="12.00" fill="white">Text Logs</text>
</g>
<!-- logagents&#45;&gt;textlogs1 -->
<g id="edge6" class="edge">
<title>logagents&#45;&gt;textlogs1</title>
<path fill="none" stroke="#64748b" stroke-width="2" stroke-dasharray="5,2" d="M173.35,-256.28C173.35,-256.28 173.35,-184.02 173.35,-184.02"/>
<polygon fill="#64748b" stroke="#64748b" stroke-width="2" points="176.85,-184.02 173.35,-174.02 169.85,-184.02 176.85,-184.02"/>
</g>
<!-- correlation -->
<g id="node8" class="node">
<title>correlation</title>
<path fill="#22c55e" stroke="#16a34a" d="M713.92,-170.6C713.92,-170.6 651.38,-170.6 651.38,-170.6 645.38,-170.6 639.38,-164.6 639.38,-158.6 639.38,-158.6 639.38,-140.3 639.38,-140.3 639.38,-134.3 645.38,-128.3 651.38,-128.3 651.38,-128.3 713.92,-128.3 713.92,-128.3 719.92,-128.3 725.92,-134.3 725.92,-140.3 725.92,-140.3 725.92,-158.6 725.92,-158.6 725.92,-164.6 719.92,-170.6 713.92,-170.6"/>
<text text-anchor="middle" x="682.65" y="-144.8" font-family="Arial" font-size="12.00" fill="white">Correlation</text>
</g>
<!-- siem&#45;&gt;correlation -->
<g id="edge7" class="edge">
<title>siem&#45;&gt;correlation</title>
<path fill="none" stroke="#8b5cf6" stroke-width="3" d="M682.65,-240.57C682.65,-240.57 682.65,-185.55 682.65,-185.55"/>
<polygon fill="#8b5cf6" stroke="#8b5cf6" stroke-width="3" points="679.15,-240.57 682.65,-250.57 686.15,-240.57 679.15,-240.57"/>
<polygon fill="#8b5cf6" stroke="#8b5cf6" stroke-width="3" points="686.15,-185.55 682.65,-175.55 679.15,-185.55 686.15,-185.55"/>
<text text-anchor="middle" x="656.77" y="-215.56" font-family="Arial" font-size="10.00">bidirectional</text>
</g>
<!-- flowreceivers -->
<g id="node4" class="node">
<title>flowreceivers</title>
<path fill="#ffffff" stroke="#475569" d="M561.17,-298.9C561.17,-298.9 476.12,-298.9 476.12,-298.9 470.12,-298.9 464.12,-292.9 464.12,-286.9 464.12,-286.9 464.12,-268.6 464.12,-268.6 464.12,-262.6 470.12,-256.6 476.12,-256.6 476.12,-256.6 561.17,-256.6 561.17,-256.6 567.17,-256.6 573.17,-262.6 573.17,-268.6 573.17,-268.6 573.17,-286.9 573.17,-286.9 573.17,-292.9 567.17,-298.9 561.17,-298.9"/>
<text text-anchor="middle" x="518.65" y="-273.1" font-family="Arial" font-size="12.00">Flow Receivers</text>
</g>
<!-- flowreceivers&#45;&gt;siem -->
<g id="edge4" class="edge">
<title>flowreceivers&#45;&gt;siem</title>
<path fill="none" stroke="#475569" stroke-width="2" d="M573.26,-277C573.26,-277 616.37,-277 616.37,-277"/>
<polygon fill="#475569" stroke="#475569" stroke-width="2" points="616.37,-280.5 626.37,-277 616.37,-273.5 616.37,-280.5"/>
<text text-anchor="middle" x="604.38" y="-267.5" font-family="Arial" font-size="10.00">flow data</text>
</g>
<!-- textlogs2 -->
<g id="node9" class="node">
<title>textlogs2</title>
<path fill="#0ea5e9" stroke="#0284c7" d="M546.55,-170.6C546.55,-170.6 490.75,-170.6 490.75,-170.6 484.75,-170.6 478.75,-164.6 478.75,-158.6 478.75,-158.6 478.75,-140.3 478.75,-140.3 478.75,-134.3 484.75,-128.3 490.75,-128.3 490.75,-128.3 546.55,-128.3 546.55,-128.3 552.55,-128.3 558.55,-134.3 558.55,-140.3 558.55,-140.3 558.55,-158.6 558.55,-158.6 558.55,-164.6 552.55,-170.6 546.55,-170.6"/>
<text text-anchor="middle" x="518.65" y="-144.8" font-family="Arial" font-size="12.00" fill="white">Text Logs</text>
</g>
<!-- flowreceivers&#45;&gt;textlogs2 -->
<g id="edge8" class="edge">
<title>flowreceivers&#45;&gt;textlogs2</title>
<path fill="none" stroke="#64748b" stroke-width="2" stroke-dasharray="5,2" d="M518.65,-256.28C518.65,-256.28 518.65,-184.02 518.65,-184.02"/>
<polygon fill="#64748b" stroke="#64748b" stroke-width="2" points="522.15,-184.02 518.65,-174.02 515.15,-184.02 522.15,-184.02"/>
</g>
<!-- networkdevices -->
<g id="node5" class="node">
<title>networkdevices</title>
<path fill="#ffffff" stroke="#475569" d="M394.3,-298.9C394.3,-298.9 301,-298.9 301,-298.9 295,-298.9 289,-292.9 289,-286.9 289,-286.9 289,-268.6 289,-268.6 289,-262.6 295,-256.6 301,-256.6 301,-256.6 394.3,-256.6 394.3,-256.6 400.3,-256.6 406.3,-262.6 406.3,-268.6 406.3,-268.6 406.3,-286.9 406.3,-286.9 406.3,-292.9 400.3,-298.9 394.3,-298.9"/>
<text text-anchor="middle" x="347.65" y="-273.1" font-family="Arial" font-size="12.00">Network Devices</text>
</g>
<!-- networkdevices&#45;&gt;flowreceivers -->
<g id="edge3" class="edge">
<title>networkdevices&#45;&gt;flowreceivers</title>
<path fill="none" stroke="#475569" stroke-width="2" d="M406.5,-277C406.5,-277 450.69,-277 450.69,-277"/>
<polygon fill="#475569" stroke="#475569" stroke-width="2" points="450.69,-280.5 460.69,-277 450.69,-273.5 450.69,-280.5"/>
<text text-anchor="middle" x="428.6" y="-267.5" font-family="Arial" font-size="10.00">network data</text>
</g>
<!-- flowdata -->
<g id="node10" class="node">
<title>flowdata</title>
<path fill="#0ea5e9" stroke="#0284c7" d="M376.67,-170.6C376.67,-170.6 318.62,-170.6 318.62,-170.6 312.62,-170.6 306.62,-164.6 306.62,-158.6 306.62,-158.6 306.62,-140.3 306.62,-140.3 306.62,-134.3 312.62,-128.3 318.62,-128.3 318.62,-128.3 376.67,-128.3 376.67,-128.3 382.67,-128.3 388.67,-134.3 388.67,-140.3 388.67,-140.3 388.67,-158.6 388.67,-158.6 388.67,-164.6 382.67,-170.6 376.67,-170.6"/>
<text text-anchor="middle" x="347.65" y="-144.8" font-family="Arial" font-size="12.00" fill="white">Flow Data</text>
</g>
<!-- networkdevices&#45;&gt;flowdata -->
<g id="edge9" class="edge">
<title>networkdevices&#45;&gt;flowdata</title>
<path fill="none" stroke="#64748b" stroke-width="2" stroke-dasharray="5,2" d="M347.65,-256.28C347.65,-256.28 347.65,-184.02 347.65,-184.02"/>
<polygon fill="#64748b" stroke="#64748b" stroke-width="2" points="351.15,-184.02 347.65,-174.02 344.15,-184.02 351.15,-184.02"/>
</g>
<!-- analytics -->
<g id="node11" class="node">
<title>analytics</title>
<path fill="#22c55e" stroke="#16a34a" d="M643.3,-42.3C643.3,-42.3 592,-42.3 592,-42.3 586,-42.3 580,-36.3 580,-30.3 580,-30.3 580,-12 580,-12 580,-6 586,0 592,0 592,0 643.3,0 643.3,0 649.3,0 655.3,-6 655.3,-12 655.3,-12 655.3,-30.3 655.3,-30.3 655.3,-36.3 649.3,-42.3 643.3,-42.3"/>
<text text-anchor="middle" x="617.65" y="-16.5" font-family="Arial" font-size="12.00" fill="white">Analytics</text>
</g>
<!-- correlation&#45;&gt;analytics -->
<g id="edge10" class="edge">
<title>correlation&#45;&gt;analytics</title>
<path fill="none" stroke="#16a34a" stroke-width="2" d="M647.34,-127.98C647.34,-127.98 647.34,-55.72 647.34,-55.72"/>
<polygon fill="#16a34a" stroke="#16a34a" stroke-width="2" points="650.84,-55.72 647.34,-45.72 643.84,-55.72 650.84,-55.72"/>
</g>
<!-- alerting -->
<g id="node12" class="node">
<title>alerting</title>
<path fill="#22c55e" stroke="#16a34a" d="M769.92,-42.3C769.92,-42.3 725.38,-42.3 725.38,-42.3 719.38,-42.3 713.38,-36.3 713.38,-30.3 713.38,-30.3 713.38,-12 713.38,-12 713.38,-6 719.38,0 725.38,0 725.38,0 769.92,0 769.92,0 775.92,0 781.92,-6 781.92,-12 781.92,-12 781.92,-30.3 781.92,-30.3 781.92,-36.3 775.92,-42.3 769.92,-42.3"/>
<text text-anchor="middle" x="747.65" y="-16.5" font-family="Arial" font-size="12.00" fill="white">Alerting</text>
</g>
<!-- correlation&#45;&gt;alerting -->
<g id="edge11" class="edge">
<title>correlation&#45;&gt;alerting</title>
<path fill="none" stroke="#16a34a" stroke-width="2" d="M719.65,-127.98C719.65,-127.98 719.65,-55.72 719.65,-55.72"/>
<polygon fill="#16a34a" stroke="#16a34a" stroke-width="2" points="723.15,-55.72 719.65,-45.72 716.15,-55.72 723.15,-55.72"/>
</g>
</g>
</svg>
