<?xml version="1.0" encoding="UTF-8" standalone="no"?>
<!DOCTYPE svg PUBLIC "-//W3C//DTD SVG 1.1//EN"
 "http://www.w3.org/Graphics/SVG/1.1/DTD/svg11.dtd">
<!-- Generated by graphviz version 9.0.0 (20230911.1827)
 -->
<!-- Title: ProgrammingLanguageComparison Pages: 1 -->
<svg width="757pt" height="248pt"
 viewBox="0.00 0.00 757.38 248.00" xmlns="http://www.w3.org/2000/svg" xmlns:xlink="http://www.w3.org/1999/xlink">
<g id="graph0" class="graph" transform="scale(1 1) rotate(0) translate(4 244)">
<title>ProgrammingLanguageComparison</title>
<polygon fill="white" stroke="none" points="-4,4 -4,-244 753.38,-244 753.38,4 -4,4"/>
<!-- python -->
<g id="node1" class="node">
<title>python</title>
<polygon fill="none" stroke="black" points="107.5,-168 0,-168 0,-100 107.5,-100 107.5,-168"/>
<text text-anchor="middle" x="53.75" y="-154.5" font-family="Arial" font-size="10.00">Python</text>
<text text-anchor="middle" x="53.75" y="-142.5" font-family="Arial" font-size="10.00">• Easy to develop</text>
<text text-anchor="middle" x="53.75" y="-130.5" font-family="Arial" font-size="10.00">• Requires interpreter</text>
<text text-anchor="middle" x="53.75" y="-118.5" font-family="Arial" font-size="10.00">• Larger file sizes</text>
<text text-anchor="middle" x="53.75" y="-106.5" font-family="Arial" font-size="10.00">• Easier to analyze</text>
</g>
<!-- csharp -->
<g id="node2" class="node">
<title>csharp</title>
<polygon fill="none" stroke="black" points="243.75,-168 125.75,-168 125.75,-100 243.75,-100 243.75,-168"/>
<text text-anchor="middle" x="184.75" y="-154.5" font-family="Arial" font-size="10.00">C#</text>
<text text-anchor="middle" x="184.75" y="-142.5" font-family="Arial" font-size="10.00">• .NET Framework req.</text>
<text text-anchor="middle" x="184.75" y="-130.5" font-family="Arial" font-size="10.00">• Intermediate language</text>
<text text-anchor="middle" x="184.75" y="-118.5" font-family="Arial" font-size="10.00">• Memory managed</text>
<text text-anchor="middle" x="184.75" y="-106.5" font-family="Arial" font-size="10.00">• Reverse eng. possible</text>
</g>
<!-- powershell -->
<g id="node3" class="node">
<title>powershell</title>
<polygon fill="none" stroke="black" points="368.12,-168 261.38,-168 261.38,-100 368.12,-100 368.12,-168"/>
<text text-anchor="middle" x="314.75" y="-154.5" font-family="Arial" font-size="10.00">PowerShell</text>
<text text-anchor="middle" x="314.75" y="-142.5" font-family="Arial" font-size="10.00">• Windows native</text>
<text text-anchor="middle" x="314.75" y="-130.5" font-family="Arial" font-size="10.00">• Script&#45;based</text>
<text text-anchor="middle" x="314.75" y="-118.5" font-family="Arial" font-size="10.00">• Easy to detect</text>
<text text-anchor="middle" x="314.75" y="-106.5" font-family="Arial" font-size="10.00">• Limited obfuscation</text>
</g>
<!-- c -->
<g id="node4" class="node">
<title>c</title>
<polygon fill="none" stroke="black" points="489.25,-168 386.25,-168 386.25,-100 489.25,-100 489.25,-168"/>
<text text-anchor="middle" x="437.75" y="-154.5" font-family="Arial" font-size="10.00">C</text>
<text text-anchor="middle" x="437.75" y="-142.5" font-family="Arial" font-size="10.00">• Direct API access</text>
<text text-anchor="middle" x="437.75" y="-130.5" font-family="Arial" font-size="10.00">• No dependencies</text>
<text text-anchor="middle" x="437.75" y="-118.5" font-family="Arial" font-size="10.00">• Hard to reverse</text>
<text text-anchor="middle" x="437.75" y="-106.5" font-family="Arial" font-size="10.00">• Small executables</text>
</g>
<!-- recommendation -->
<g id="node9" class="node">
<title>recommendation</title>
<polygon fill="none" stroke="black" points="437.75,-64 343,-32 437.75,0 532.5,-32 437.75,-64"/>
<text text-anchor="middle" x="437.75" y="-34.5" font-family="Arial" font-size="10.00">Recommended for</text>
<text text-anchor="middle" x="437.75" y="-22.5" font-family="Arial" font-size="10.00">Windows Malware</text>
</g>
<!-- c&#45;&gt;recommendation -->
<g id="edge7" class="edge">
<title>c&#45;&gt;recommendation</title>
<path fill="none" stroke="black" stroke-width="2" d="M437.75,-99.7C437.75,-92.51 437.75,-84.8 437.75,-77.26"/>
<polygon fill="black" stroke="black" stroke-width="2" points="441.25,-77.49 437.75,-67.49 434.25,-77.49 441.25,-77.49"/>
</g>
<!-- cpp -->
<g id="node5" class="node">
<title>cpp</title>
<polygon fill="none" stroke="black" points="626.12,-168 507.38,-168 507.38,-100 626.12,-100 626.12,-168"/>
<text text-anchor="middle" x="566.75" y="-154.5" font-family="Arial" font-size="10.00">C++</text>
<text text-anchor="middle" x="566.75" y="-142.5" font-family="Arial" font-size="10.00">• Object&#45;oriented</text>
<text text-anchor="middle" x="566.75" y="-130.5" font-family="Arial" font-size="10.00">• Direct memory control</text>
<text text-anchor="middle" x="566.75" y="-118.5" font-family="Arial" font-size="10.00">• Advanced features</text>
<text text-anchor="middle" x="566.75" y="-106.5" font-family="Arial" font-size="10.00">• Moderate complexity</text>
</g>
<!-- assembly -->
<g id="node6" class="node">
<title>assembly</title>
<polygon fill="none" stroke="black" points="749.38,-168 644.12,-168 644.12,-100 749.38,-100 749.38,-168"/>
<text text-anchor="middle" x="696.75" y="-154.5" font-family="Arial" font-size="10.00">Assembly</text>
<text text-anchor="middle" x="696.75" y="-142.5" font-family="Arial" font-size="10.00">• Machine code level</text>
<text text-anchor="middle" x="696.75" y="-130.5" font-family="Arial" font-size="10.00">• Maximum control</text>
<text text-anchor="middle" x="696.75" y="-118.5" font-family="Arial" font-size="10.00">• Hardest to reverse</text>
<text text-anchor="middle" x="696.75" y="-106.5" font-family="Arial" font-size="10.00">• Smallest size</text>
</g>
<!-- highlevel -->
<g id="node7" class="node">
<title>highlevel</title>
<ellipse fill="none" stroke="black" cx="184.75" cy="-222" rx="66.45" ry="18"/>
<text text-anchor="middle" x="184.75" y="-218.5" font-family="Arial" font-size="10.00">High&#45;Level Languages</text>
</g>
<!-- highlevel&#45;&gt;python -->
<g id="edge1" class="edge">
<title>highlevel&#45;&gt;python</title>
<path fill="none" stroke="black" d="M160.11,-204.82C147.04,-196.24 130.35,-185.29 114.09,-174.61"/>
<polygon fill="black" stroke="black" points="116.14,-171.77 105.86,-169.21 112.3,-177.62 116.14,-171.77"/>
</g>
<!-- highlevel&#45;&gt;csharp -->
<g id="edge2" class="edge">
<title>highlevel&#45;&gt;csharp</title>
<path fill="none" stroke="black" d="M184.75,-203.6C184.75,-196.65 184.75,-188.29 184.75,-179.84"/>
<polygon fill="black" stroke="black" points="188.25,-179.9 184.75,-169.9 181.25,-179.9 188.25,-179.9"/>
</g>
<!-- highlevel&#45;&gt;powershell -->
<g id="edge3" class="edge">
<title>highlevel&#45;&gt;powershell</title>
<path fill="none" stroke="black" d="M209.2,-204.82C222.18,-196.24 238.74,-185.29 254.87,-174.61"/>
<polygon fill="black" stroke="black" points="256.62,-177.65 263.03,-169.21 252.76,-171.81 256.62,-177.65"/>
</g>
<!-- lowlevel -->
<g id="node8" class="node">
<title>lowlevel</title>
<ellipse fill="none" stroke="black" cx="566.75" cy="-222" rx="65.09" ry="18"/>
<text text-anchor="middle" x="566.75" y="-218.5" font-family="Arial" font-size="10.00">Low&#45;Level Languages</text>
</g>
<!-- lowlevel&#45;&gt;c -->
<g id="edge4" class="edge">
<title>lowlevel&#45;&gt;c</title>
<path fill="none" stroke="black" d="M542.49,-204.82C529.61,-196.24 513.18,-185.29 497.17,-174.61"/>
<polygon fill="black" stroke="black" points="499.34,-171.85 489.08,-169.22 495.46,-177.68 499.34,-171.85"/>
</g>
<!-- lowlevel&#45;&gt;cpp -->
<g id="edge5" class="edge">
<title>lowlevel&#45;&gt;cpp</title>
<path fill="none" stroke="black" d="M566.75,-203.6C566.75,-196.65 566.75,-188.29 566.75,-179.84"/>
<polygon fill="black" stroke="black" points="570.25,-179.9 566.75,-169.9 563.25,-179.9 570.25,-179.9"/>
</g>
<!-- lowlevel&#45;&gt;assembly -->
<g id="edge6" class="edge">
<title>lowlevel&#45;&gt;assembly</title>
<path fill="none" stroke="black" d="M590.9,-205.03C603.91,-196.42 620.6,-185.38 636.85,-174.62"/>
<polygon fill="black" stroke="black" points="638.67,-177.62 645.08,-169.18 634.81,-171.78 638.67,-177.62"/>
</g>
</g>
</svg>
